HIERARCHY
ROOT root
{
	OFFSET	0	13.1	24.9
	CHANNELS 6  Xposition Yposition Zposition Xrotation Yrotation Zrotation
	JOINT spine_1
	{
		OFFSET	0	9.99999	0
		CHANNELS 3  Xrotation Yrotation Zrotation
		JOINT spine_2
		{
			OFFSET	0	112	-10
			CHANNELS 3  Xrotation Yrotation Zrotation
			JOINT spine_3
			{
				OFFSET	0	206.5	19.3
				CHANNELS 3  Xrotation Yrotation Zrotation
				JOINT spine_4
				{
					OFFSET	0	110.4	14.6
					CHANNELS 3  Xrotation Yrotation Zrotation
					JOINT neck_1
					{
						OFFSET	0	71.8	-50.3
						CHANNELS 3  Xrotation Yrotation Zrotation
						JOINT neck_2
						{
							OFFSET	0	86.2	-25.8
							CHANNELS 3  Xrotation Yrotation Zrotation
							JOINT head_ee
							{
								OFFSET	0	179.8	-8.7
								CHANNELS 3  Xrotation Yrotation Zrotation
								End Site
								{
									OFFSET	1	0	0
								}
							}
						}
					}
					JOINT left_clavicle
					{
						OFFSET	-43.2	22.4	-70.8
						CHANNELS 3  Xrotation Yrotation Zrotation
						JOINT left_shoulder
						{
							OFFSET	-93.9	-5.79999	48.7
							CHANNELS 3  Xrotation Yrotation Zrotation
							JOINT left_elbow
							{
								OFFSET	-291.4	-30.8	15.2
								CHANNELS 3  Xrotation Yrotation Zrotation
								JOINT left_lowarm_twist
								{
									OFFSET	-110.7	-3.89999	13.6
									CHANNELS 3  Xrotation Yrotation Zrotation
									JOINT left_hand
									{
										OFFSET	-110.7	-3.89999	13.6
										CHANNELS 3  Xrotation Yrotation Zrotation
										JOINT left_ee
										{
											OFFSET	-80.8	-5.10001	12.1
											CHANNELS 3  Xrotation Yrotation Zrotation
											End Site
											{
												OFFSET	1	0	0
											}
										}
									}
								}
							}
						}
					}
					JOINT right_clavicle
					{
						OFFSET	43.2	22.4	-70.8
						CHANNELS 3  Xrotation Yrotation Zrotation
						JOINT right_shoulder
						{
							OFFSET	93.9	-5.79999	48.7
							CHANNELS 3  Xrotation Yrotation Zrotation
							JOINT right_elbow
							{
								OFFSET	291.4	-30.8	15.2
								CHANNELS 3  Xrotation Yrotation Zrotation
								JOINT right_lowarm_twist
								{
									OFFSET	110.7	-3.89999	13.6
									CHANNELS 3  Xrotation Yrotation Zrotation
									JOINT right_hand
									{
										OFFSET	110.7	-3.89999	13.6
										CHANNELS 3  Xrotation Yrotation Zrotation
										JOINT right_ee
										{
											OFFSET	80.8	-5.10001	12.1
											CHANNELS 3  Xrotation Yrotation Zrotation
											End Site
											{
												OFFSET	1	0	0
											}
										}
									}
								}
							}
						}
					}
				}
			}
		}
	}
	JOINT left_hip
	{
		OFFSET	-82.8	-127.5	0.300001
		CHANNELS 3  Xrotation Yrotation Zrotation
		JOINT left_knee
		{
			OFFSET	-28.2	-396.7	2.2
			CHANNELS 3  Xrotation Yrotation Zrotation
			JOINT left_ankle
			{
				OFFSET	-11.7	-411.3	35.4
				CHANNELS 3  Xrotation Yrotation Zrotation
				JOINT left_toes
				{
					OFFSET	0	-60	-88.6
					CHANNELS 3  Xrotation Yrotation Zrotation
					JOINT left_foot_ee
					{
						OFFSET	-22.5	-16.5	-42.2
						CHANNELS 3  Xrotation Yrotation Zrotation
						End Site
						{
							OFFSET	1	0	0
						}
					}
				}
			}
		}
	}
	JOINT right_hip
	{
		OFFSET	82.8	-127.5	0.300001
		CHANNELS 3  Xrotation Yrotation Zrotation
		JOINT right_knee
		{
			OFFSET	28.2	-396.7	2.2
			CHANNELS 3  Xrotation Yrotation Zrotation
			JOINT right_ankle
			{
				OFFSET	11.7	-411.3	35.4
				CHANNELS 3  Xrotation Yrotation Zrotation
				JOINT right_toes
				{
					OFFSET	0	-60	-88.6
					CHANNELS 3  Xrotation Yrotation Zrotation
					JOINT right_foot_ee
					{
						OFFSET	22.5	-16.5	-42.2
						CHANNELS 3  Xrotation Yrotation Zrotation
						End Site
						{
							OFFSET	1	0	0
						}
					}
				}
			}
		}
	}
}
MOTION
Frames: 15
Frame Time: 0.02
774.069 628.902 -1738.21 -95.4762 65.287 106.145 10.7261 -0.435463 -2.54987 10.7297 -0.272381 -2.57239 10.733 -0.209701 -2.57825 10.7243 -0.614127 -2.51285 -15.4232 -17.3381 3.76676 -16.7428 -35.3552 -2.91736 -0.0 0.0 -0.0 10.6367 -6.83216 21.2235 -39.1073 8.07544 64.5893 0.189416 -5.36057 0.00886738 85.1354 -4.44274 -8.87236 -3.25931 17.6512 -12.7197 -0.0 0.0 -0.0 2.12616 -24.0207 -5.65414 64.5055 -57.9637 -33.1222 0.497286 13.8389 -0.0603501 85.5375 4.491 8.89061 -6.57784 -30.2209 23.9024 0.0 0.0 0.0 55.6478 -37.1674 3.27919 -6.67694 0.216766 1.00121 5.99299 12.1887 -0.865139 37.6138 -0.0 -0.0 -0.0 0.0 -0.0 6.30559 -27.1518 -21.6441 -2.60905 -0.0985973 -0.38823 39.613 13.0157 5.07104 5.60615 -0.0 -0.0 0.0 0.0 0.0 
753.98 619.688 -1744.98 -90.504 70.0328 101.755 9.59735 -0.587568 -2.49455 9.60071 -0.427694 -2.52685 9.6121 -0.316502 -2.54316 9.60379 -0.714055 -2.46135 -19.6851 -16.0635 1.3965 -21.2849 -31.6291 -5.93394 -0.0 0.0 -0.0 10.5396 -8.31443 21.0232 -37.6286 -4.70452 62.9112 3.25383 -58.1712 1.81033 16.1784 0.283654 -2.04033 5.15717 -4.10359 35.1662 -0.0 0.0 -0.0 2.44006 -15.9024 -5.72327 30.7527 -38.5259 -56.2283 0.59999 16.553 -0.0872787 76.4812 3.43915 8.3991 2.56243 -30.5554 -26.3996 0.0 0.0 0.0 52.5372 -28.5835 0.616848 -15.4072 0.322059 2.33536 21.5534 7.68258 -2.92162 -12.3778 0.0 0.0 -0.0 0.0 -0.0 2.83645 -17.8269 -22.6982 -3.83815 -0.13889 -0.572553 39.7505 10.973 5.02856 6.03749 -0.0 -0.0 0.0 0.0 0.0 
736.392 617.374 -1748.19 -89.2386 70.3538 100.573 9.29204 -0.780773 -2.46166 9.29519 -0.6226 -2.50631 9.31549 -0.499192 -2.53377 9.30764 -0.892972 -2.42324 -23.417 -17.438 4.33987 -26.1255 -35.4577 -5.42274 -0.0 0.0 -0.0 10.0187 -7.96031 19.8876 -37.0702 -2.12586 64.7909 3.50257 -60.0284 2.02378 14.3327 0.280579 -1.80462 4.05823 5.41563 30.3902 -0.0 0.0 -0.0 1.91037 -15.8895 -4.88384 30.0725 -41.6345 -58.2812 0.705766 19.2705 -0.119819 80.9615 3.94985 8.66304 0.0688711 -30.1921 -12.1274 0.0 0.0 0.0 53.9724 -28.9303 1.38846 -21.8656 0.268808 3.32436 23.4228 10.205 -3.15135 -3.37878 0.0 0.0 -0.0 0.0 -0.0 5.39227 -12.2091 -21.7001 -8.40122 -0.253662 -1.26323 40.4874 4.85009 4.97096 11.2048 -0.0 -0.0 0.0 0.0 0.0 
718.05 616.961 -1756.63 -85.8583 70.1447 97.433 9.40893 -0.486492 -1.83665 9.41074 -0.368656 -1.86388 9.41879 -0.280157 -1.87921 9.41432 -0.573379 -1.81142 -22.6919 -18.1503 0.29699 -25.2466 -35.0648 -9.2225 -0.0 0.0 -0.0 10.2247 -11.7906 20.2962 -40.6023 2.33475 65.7006 4.18322 -64.2202 2.62586 26.2638 0.166641 -3.3216 2.83292 3.2237 20.554 -0.0 0.0 -0.0 1.04811 -17.5262 -3.66239 28.5551 -44.9555 -59.88 0.464954 12.9706 -0.0528543 84.2876 4.34143 8.83276 1.74198 -30.2428 -21.4835 0.0 0.0 0.0 53.7668 -29.0332 0.322976 -24.5802 0.213224 3.73718 28.3236 10.969 -3.7184 -6.15723 0.0 0.0 -0.0 0.0 -0.0 6.68548 -11.7404 -21.163 -12.6443 -0.310752 -1.91165 39.6732 11.0518 5.02377 10.939 -0.0 -0.0 0.0 0.0 0.0 
708.712 617.711 -1760.36 -84.545 69.0857 95.9464 9.47499 -0.182238 -1.83568 9.47687 -0.0650799 -1.84355 9.47506 0.020467 -1.84458 9.47041 -0.271058 -1.82468 -21.3777 -18.8622 1.66591 -24.042 -37.0895 -7.96845 -0.0 0.0 -0.0 10.2722 -11.4341 20.4085 -39.3231 2.24789 64.7548 4.01412 -63.2841 2.47419 35.8416 -0.150823 -4.50226 2.74662 2.67147 19.7324 -0.0 0.0 -0.0 1.82299 -19.5602 -4.98233 29.2093 -46.3732 -57.9469 0.579118 16.0072 -0.0814274 83.0192 4.19095 8.77072 1.05368 -30.2158 -17.5588 0.0 0.0 0.0 53.1244 -29.2009 -0.708386 -23.5212 0.237235 3.57644 28.3127 8.37176 -3.70739 -1.12163 0.0 0.0 -0.0 0.0 -0.0 8.41865 -12.0598 -21.084 -14.1465 -0.319434 -2.14195 39.4216 10.6978 4.99293 13.5467 -0.0 -0.0 0.0 0.0 0.0 
691.426 620.687 -1764.66 -85.7995 69.4239 97.2236 9.60248 -0.143946 -1.61095 9.60393 -0.0411587 -1.61684 9.60204 0.0302736 -1.61708 9.59846 -0.225461 -1.60158 -21.5854 -17.8119 1.51006 -23.9376 -35.0023 -7.51451 -0.0 0.0 -0.0 10.5875 -11.5477 21.1041 -36.2909 0.905939 63.6851 3.3265 -58.7349 1.87226 41.8043 -0.446422 -5.20479 1.05071 11.6934 11.568 -0.0 0.0 -0.0 0.43247 -21.8524 -3.14954 24.6962 -45.5983 -62.3677 0.536354 14.8796 -0.0700394 84.1302 4.32268 8.82524 0.62196 -29.9134 -15.0677 0.0 0.0 0.0 52.9231 -30.313 -0.801307 -26.1659 0.171723 3.97698 25.7365 7.03921 -3.4157 8.59482 -0.0 -0.0 -0.0 0.0 -0.0 11.2509 -13.488 -19.8689 -21.3409 -0.277293 -3.24428 37.5692 11.9269 4.85636 17.5582 -0.0 -0.0 0.0 0.0 0.0 
677.114 623.685 -1770.78 -86.0778 68.8392 97.7012 9.99342 -0.161498 -1.57887 9.99481 -0.0607158 -1.58595 9.9934 -0.00147996 -1.58711 9.98997 -0.252084 -1.56697 -23.1622 -17.7298 1.64934 -25.7574 -34.847 -7.92357 -0.0 0.0 -0.0 10.6573 -11.7114 21.2561 -31.8231 -1.49931 63.8276 2.68257 -53.0284 1.33849 51.3906 -1.07015 -6.25975 -2.10701 18.3079 -5.30041 -0.0 0.0 -0.0 0.73298 -22.2543 -3.6107 22.2147 -45.7531 -62.3162 0.541446 15.0145 -0.0713527 84.069 4.3154 8.8223 -0.296352 -28.9854 -9.71707 0.0 0.0 0.0 51.1618 -30.8734 -2.03585 -24.483 0.215551 3.72244 26.8401 3.68843 -3.54518 15.4786 -0.0 -0.0 -0.0 0.0 -0.0 12.5779 -13.9572 -19.9529 -22.6037 -0.255634 -3.43684 34.6685 13.2785 4.61277 24.3874 -0.0 -0.0 0.0 0.0 0.0 
661.75 629.406 -1776.1 -86.5155 68.5775 98.0481 10.1983 -0.101251 -1.48915 10.1995 -0.00629817 -1.49257 10.1969 0.0441329 -1.49193 10.1938 -0.192017 -1.48018 -23.2231 -17.3142 2.05062 -25.7168 -34.2278 -7.31151 -0.0 0.0 -0.0 10.8875 -10.9197 21.7797 -26.4224 -4.35226 62.4507 1.80199 -41.7498 0.687257 60.3962 -1.80933 -7.14436 -2.08984 19.6723 -4.52262 -0.0 0.0 -0.0 1.05978 -21.7553 -4.02988 19.69 -46.1375 -61.2024 0.479448 13.3607 -0.0561557 80.0839 3.84822 8.61449 -0.296771 -29.2119 -9.79755 0.0 0.0 0.0 50.7302 -32.4988 -2.19766 -24.989 0.20316 3.79911 21.0405 0.990166 -2.87474 25.9675 -0.0 -0.0 -0.0 0.0 -0.0 12.478 -15.8792 -19.6576 -24.1925 -0.222361 -3.67837 32.0875 14.4638 4.37917 27.365 -0.0 -0.0 0.0 0.0 0.0 
656.581 629.072 -1774.77 -84.4835 68.2813 95.8951 9.72554 -0.198086 -1.62385 9.72701 -0.0943692 -1.63316 9.72652 -0.0257407 -1.63568 9.7229 -0.283709 -1.6111 -20.9502 -17.8623 4.47866 -23.3922 -36.54 -4.65998 -0.0 0.0 -0.0 10.8898 -12.4052 21.7601 -23.9103 -2.18034 63.8557 1.60896 -38.553 0.56274 66.571 -2.39254 -7.67949 -2.13235 19.1588 -5.03145 -0.0 0.0 -0.0 1.4169 -20.9078 -4.47718 20.1438 -47.9866 -59.4776 0.440067 12.2981 -0.0474107 80.8539 3.93735 8.65717 -1.09292 -29.0406 -5.42648 0.0 0.0 0.0 50.7103 -31.9132 -2.07524 -25.7881 0.182213 3.91995 19.4876 3.77941 -2.67163 31.2729 -0.0 -0.0 -0.0 0.0 -0.0 15.3353 -17.1192 -17.7815 -27.4476 -0.133334 -4.16993 29.9316 17.8198 4.24439 35.1675 -0.0 -0.0 0.0 0.0 0.0 
634.096 635.16 -1773.83 -90.0817 67.8793 101.85 9.67941 -0.11024 -1.74085 9.68109 0.000740502 -1.74433 9.6775 0.0754868 -1.7427 9.67332 -0.200645 -1.73276 -18.793 -18.5283 5.22228 -21.0671 -38.3257 -3.53683 -0.0 0.0 -0.0 10.6812 -10.9276 21.3216 -23.4796 -6.41799 64.8448 1.38134 -34.3809 0.427362 75.7984 -3.36318 -8.35541 -2.44156 11.9404 -10.594 -0.0 0.0 -0.0 1.52831 -18.347 -4.4595 16.0154 -48.7962 -57.3245 0.382637 10.7331 -0.0359447 80.6506 3.91377 8.64602 -0.454047 -28.9076 -8.82904 0.0 0.0 0.0 49.0469 -32.4214 -1.58893 -23.7077 0.233222 3.60478 19.6294 0.780635 -2.70129 32.1173 -0.0 -0.0 -0.0 0.0 -0.0 18.2261 -13.7703 -17.8489 -29.0131 -0.0806001 -4.40439 31.5048 14.8462 4.32751 37.2603 -0.0 -0.0 0.0 0.0 0.0 
622.393 638.979 -1772.68 -95.1718 66.9064 107.291 9.84332 -0.443712 -1.78351 9.84503 -0.329342 -1.80812 9.85148 -0.257253 -1.81977 9.84727 -0.541379 -1.75633 -18.7503 -18.7307 4.21696 -21.0249 -38.1953 -4.54193 -0.0 0.0 -0.0 10.8873 -11.4294 21.7725 -21.8983 -7.75337 65.8281 1.1256 -29.1427 0.292605 84.402 -4.35507 -8.83819 -3.64321 12.7322 -18.0268 -0.0 0.0 -0.0 1.91755 -17.6264 -5.00538 17.2955 -50.5724 -53.9556 0.269899 7.61547 -0.0179633 80.1235 3.85279 8.61671 -0.120861 -24.9336 -9.20942 0.0 0.0 0.0 49.0028 -32.4409 -1.01045 -21.109 0.280809 3.20888 20.2314 -0.0670689 -2.78099 36.9766 -0.0 -0.0 -0.0 0.0 -0.0 21.1649 -17.2818 -16.9156 -34.1357 0.136427 -5.16025 33.7464 12.2298 4.4922 37.589 -0.0 -0.0 0.0 0.0 0.0 
610.218 634.519 -1776.86 -96.0243 67.3258 108.258 9.95745 -0.343687 -1.86533 9.95935 -0.224317 -1.88341 9.96237 -0.152927 -1.89054 9.95766 -0.449533 -1.84269 -19.085 -18.5181 5.49476 -21.4271 -38.4275 -3.40599 -0.0 0.0 -0.0 10.9391 -8.90888 21.9035 -19.4024 -3.47011 64.9947 0.936902 -24.8963 0.206821 85.2691 -4.45877 -8.87846 -5.80235 16.8251 -30.184 -0.0 0.0 -0.0 1.4855 -18.4292 -4.40059 15.0626 -49.4974 -55.0194 0.213685 6.0426 -0.0112785 70.9957 2.84434 8.02303 -0.2264 -8.45193 -2.04841 0.0 0.0 0.0 48.8707 -31.1109 -1.5036 -22.9879 0.248201 3.49534 23.7017 -2.78488 -3.22345 35.1911 -0.0 -0.0 -0.0 0.0 -0.0 25.857 -18.5542 -15.0154 -41.4808 0.56365 -6.20431 38.8573 11.6283 4.96613 37.7195 -0.0 -0.0 0.0 0.0 0.0 
600.219 635.392 -1776.49 -96.4787 66.9079 108.491 9.40526 -0.535399 -2.03048 9.40746 -0.405138 -2.06041 9.41721 -0.307292 -2.07725 9.41175 -0.631434 -2.0027 -12.9335 -17.9017 7.0505 -13.9221 -38.3988 0.906488 -0.0 0.0 -0.0 11.2293 -12.0906 22.5262 -17.8569 -6.44908 65.4297 0.966283 -25.5785 0.219348 85.2045 -4.45103 -8.87552 -4.90724 16.1589 -24.3791 -0.0 0.0 -0.0 1.34628 -22.503 -4.4901 18.2185 -49.9463 -52.4313 0.276568 7.80134 -0.0188577 63.6616 2.11054 7.43514 -1.51322 -26.6441 -2.0934 0.0 0.0 0.0 47.0449 -32.0651 -2.01639 -21.1142 0.280732 3.20967 26.8975 0.518423 -3.56658 34.9751 -0.0 -0.0 -0.0 0.0 -0.0 27.5121 -19.4965 -13.5172 -44.1073 0.748528 -6.56346 39.0587 12.5652 5.00917 35.8524 -0.0 -0.0 0.0 0.0 0.0 
590.003 631.494 -1786.08 -96.2279 66.3828 108.798 9.70326 -0.557141 -2.00748 9.7054 -0.428298 -2.03884 9.71575 -0.342176 -2.05504 9.71046 -0.662374 -1.97526 -10.6449 -17.0564 7.59388 -11.0793 -37.1722 2.67466 -0.0 0.0 -0.0 11.3049 -14.0128 22.6506 -8.13728 -5.77229 66.7901 0.80928 -21.8454 0.156178 85.4423 -4.47957 -8.88632 -6.63644 12.232 -40.5834 -0.0 0.0 -0.0 1.88028 -23.3089 -5.28202 16.6674 -47.4892 -51.4657 0.18722 5.29876 -0.00866325 68.1064 2.54629 7.80262 -1.11767 -28.4409 -5.04103 0.0 0.0 0.0 45.4263 -40.6876 -2.83818 -21.2486 0.27871 3.23019 30.1079 5.33677 -3.89995 35.542 -0.0 -0.0 -0.0 0.0 -0.0 28.265 -22.4382 -13.2415 -46.8383 0.958093 -6.92767 38.8025 14.6953 5.04893 39.1382 -0.0 -0.0 0.0 0.0 0.0 
579.772 632.707 -1785.41 -94.6888 66.1157 106.903 9.57513 -0.732098 -2.11688 9.57743 -0.595944 -2.15915 9.59458 -0.50013 -2.18333 9.58891 -0.838596 -2.07701 -10.2994 -17.9463 6.63272 -10.7611 -38.2174 1.59046 -0.0 0.0 -0.0 12.2962 -17.6685 24.7604 -2.07962 -7.00926 66.6559 0.767188 -20.8089 0.140869 85.2226 -4.4532 -8.87634 -2.79071 -5.21367 -21.5237 -0.0 0.0 -0.0 1.11901 -24.166 -4.29941 14.5051 -46.0096 -55.9823 0.193208 5.46725 -0.00922519 66.2844 2.36421 7.65605 -0.723076 -21.1008 -4.21101 0.0 0.0 0.0 44.4597 -38.4256 -3.36771 -19.7874 0.298108 3.00683 32.5312 6.54277 -4.15285 35.3863 -0.0 -0.0 -0.0 0.0 -0.0 35.5793 -24.1179 -9.33268 -56.7861 1.86312 -8.16194 36.5335 12.6933 4.77918 37.2193 -0.0 -0.0 0.0 0.0 0.0 
